<svg width="150" height="150" viewBox="0 0 150 150" fill="none" xmlns="http://www.w3.org/2000/svg">
<rect width="150" height="150" rx="75" fill="#FCE2CF"/>
<g clip-path="url(#clip0_4_2696)">
<path d="M106.563 103.924C106.566 103.891 106.584 103.863 106.584 103.83C106.584 103.56 106.464 103.29 106.264 103.1L106.184 103.02C106.177 103.016 106.17 103.014 106.163 103.01L103.93 100.935C103.527 100.56 102.893 100.582 102.517 100.987C102.141 101.391 102.164 102.024 102.569 102.4L103.032 102.831H99.984V84.481C99.984 83.921 99.534 83.481 98.984 83.481H94.564C94.004 83.481 93.564 83.921 93.564 84.481V102.831H89.914V88.171C89.914 87.611 89.464 87.171 88.914 87.171H84.494C83.934 87.171 83.494 87.611 83.494 88.171V102.831H79.844V93.701C79.844 93.151 79.394 92.701 78.844 92.701H74.414C73.864 92.701 73.414 93.151 73.414 93.701V102.831H69.774V90.011C69.774 89.461 69.324 89.011 68.774 89.011H64.344C63.794 89.011 63.344 89.461 63.344 90.011V102.831H59.694V97.391C59.694 96.841 59.254 96.391 58.694 96.391H54.274C53.724 96.391 53.274 96.841 53.274 97.391V102.831H47.584V48.313L48.017 48.779C48.395 49.184 49.027 49.207 49.431 48.83C49.835 48.454 49.858 47.821 49.482 47.417L47.314 45.085C47.305 45.074 47.29 45.071 47.279 45.061C47.24 45.025 47.201 44.99 47.154 44.959C47.124 44.929 47.084 44.909 47.044 44.889C47.034 44.879 47.024 44.879 47.014 44.879C47.013 44.878 47.012 44.879 47.01 44.878C46.977 44.862 46.942 44.854 46.906 44.842C46.888 44.837 46.867 44.829 46.854 44.829C46.804 44.819 46.774 44.809 46.724 44.799C46.714 44.799 46.704 44.799 46.694 44.789C46.654 44.779 46.624 44.769 46.584 44.769C46.574 44.769 46.554 44.769 46.534 44.779C46.426 44.785 46.324 44.811 46.225 44.848C46.186 44.862 46.153 44.884 46.115 44.903C46.079 44.923 46.039 44.935 46.004 44.959C45.968 44.988 45.931 45.021 45.895 45.054C45.882 45.067 45.862 45.071 45.85 45.085L43.683 47.417C43.307 47.821 43.33 48.454 43.735 48.83C43.927 49.009 44.172 49.098 44.416 49.098C44.684 49.098 44.952 48.991 45.148 48.779L45.585 48.309V103.83C45.585 104.38 46.035 104.83 46.585 104.83H54.175C54.205 104.84 54.245 104.84 54.275 104.84C54.305 104.84 54.345 104.84 54.375 104.83H58.595C58.625 104.84 58.665 104.84 58.695 104.84C58.735 104.84 58.765 104.84 58.795 104.83H64.245C64.275 104.84 64.315 104.84 64.345 104.84C64.375 104.84 64.415 104.84 64.445 104.83H68.675C68.705 104.84 68.735 104.84 68.775 104.84C68.805 104.84 68.845 104.84 68.875 104.83H74.315C74.345 104.84 74.385 104.84 74.415 104.84C74.455 104.84 74.485 104.84 74.515 104.83H78.745C78.775 104.84 78.815 104.84 78.845 104.84C78.875 104.84 78.915 104.84 78.945 104.83H84.395C84.425 104.84 84.455 104.84 84.495 104.84C84.525 104.84 84.565 104.84 84.595 104.83H88.815C88.845 104.84 88.875 104.84 88.915 104.84C88.945 104.84 88.985 104.84 89.015 104.83H94.465C94.495 104.84 94.535 104.84 94.565 104.84C94.595 104.84 94.635 104.84 94.665 104.83H98.885C98.915 104.84 98.955 104.84 98.985 104.84C99.015 104.84 99.055 104.84 99.085 104.83H103.042L102.57 105.269C102.165 105.645 102.142 106.278 102.518 106.682C102.715 106.894 102.982 107.001 103.25 107.001C103.494 107.001 103.738 106.913 103.931 106.733L106.25 104.578C106.254 104.574 106.261 104.573 106.265 104.569C106.315 104.519 106.355 104.469 106.395 104.409C106.425 104.372 106.448 104.323 106.469 104.275C106.524 104.166 106.552 104.047 106.563 103.924Z" fill="#F28A3F"/>
<path d="M56.834 85.3691C58.574 85.3691 59.994 83.9491 59.994 82.2091C59.994 81.4891 59.754 80.8291 59.344 80.2991L65.044 73.4491C65.494 73.6991 66.004 73.8391 66.554 73.8391C67.314 73.8391 68.014 73.5791 68.554 73.1291L73.544 78.4191C73.494 78.6491 73.464 78.8891 73.464 79.1391C73.464 80.8891 74.884 82.3091 76.634 82.3091C78.374 82.3091 79.794 80.8891 79.794 79.1391C79.794 78.7091 79.704 78.2991 79.554 77.9191L85.164 70.4591C85.624 70.7191 86.144 70.8691 86.704 70.8691C87.333 70.8691 87.922 70.6791 88.412 70.3601L94.062 75.3531C93.763 75.8321 93.604 76.3811 93.604 76.9791C93.604 78.7291 95.024 80.1391 96.774 80.1391C98.514 80.1391 99.934 78.7291 99.934 76.9791C99.934 75.2391 98.514 73.8191 96.774 73.8191C96.355 73.8191 95.976 73.8991 95.607 74.0481L89.665 68.7981C89.795 68.4581 89.865 68.0891 89.865 67.7091C89.865 65.9591 88.445 64.5391 86.705 64.5391C84.955 64.5391 83.535 65.9591 83.535 67.7091C83.535 68.1491 83.625 68.5691 83.795 68.9491L78.195 76.3991C77.735 76.1291 77.205 75.9791 76.635 75.9791C75.885 75.9791 75.195 76.2391 74.655 76.6691L69.645 71.3891C69.695 71.1591 69.725 70.9191 69.725 70.6791C69.725 68.9291 68.305 67.5091 66.555 67.5091C64.815 67.5091 63.395 68.9291 63.395 70.6791C63.395 71.1391 63.495 71.5691 63.675 71.9591L57.695 79.1691C57.425 79.0891 57.135 79.0491 56.835 79.0491C55.085 79.0491 53.665 80.4591 53.665 82.2091C53.664 83.9491 55.084 85.3691 56.834 85.3691Z" fill="#F28A3F"/>
<path d="M83.964 50.819C83.974 50.669 83.984 50.509 83.984 50.359C83.984 48.619 83.304 46.939 82.044 45.589C80.504 43.939 78.334 42.999 76.074 42.999C73.944 42.999 71.954 43.829 70.454 45.339C68.974 46.829 68.164 48.799 68.184 50.889C68.214 55.309 73.924 63.409 76.064 66.289C78.144 63.419 83.654 55.409 83.964 50.819ZM70.764 50.039C70.764 47.109 73.154 44.719 76.084 44.719C79.014 44.719 81.394 47.109 81.394 50.039C81.394 52.969 79.014 55.349 76.084 55.349C73.154 55.349 70.764 52.969 70.764 50.039Z" fill="#F28A3F"/>
<path d="M79.394 50.0392C79.394 48.2092 77.914 46.7192 76.084 46.7192C74.254 46.7192 72.764 48.2092 72.764 50.0392C72.764 51.8692 74.254 53.3492 76.084 53.3492C77.914 53.3492 79.394 51.8692 79.394 50.0392Z" fill="#F28A3F"/>
</g>
<defs>
<clipPath id="clip0_4_2696">
<rect width="64" height="64" fill="white" transform="translate(43 43)"/>
</clipPath>
</defs>
</svg>
