<svg width="150" height="150" viewBox="0 0 150 150" fill="none" xmlns="http://www.w3.org/2000/svg">
<rect width="150" height="150" rx="75" fill="#E1EAEA"/>
<path d="M101.5 79.2002V55.7002" stroke="#719898" stroke-width="2" stroke-miterlimit="10" stroke-linecap="round" stroke-linejoin="round"/>
<path d="M44 55.7V95.6C44 98.2 46.1 100.3 48.7 100.3H84.8M101.5 55.7H44V48.4C44 46 46 44 48.4 44H97.1C99.5 44 101.5 46 101.5 48.4V55.7Z" stroke="#719898" stroke-width="2" stroke-miterlimit="10" stroke-linecap="round" stroke-linejoin="round"/>
<path d="M50.9 52.2001C52.2255 52.2001 53.3 51.1704 53.3 49.9001C53.3 48.6298 52.2255 47.6001 50.9 47.6001C49.5745 47.6001 48.5 48.6298 48.5 49.9001C48.5 51.1704 49.5745 52.2001 50.9 52.2001Z" stroke="#719898" stroke-width="2" stroke-miterlimit="10" stroke-linecap="round" stroke-linejoin="round"/>
<path d="M58.1 52.2001C59.4255 52.2001 60.5 51.1704 60.5 49.9001C60.5 48.6298 59.4255 47.6001 58.1 47.6001C56.7745 47.6001 55.7 48.6298 55.7 49.9001C55.7 51.1704 56.7745 52.2001 58.1 52.2001Z" stroke="#719898" stroke-width="2" stroke-miterlimit="10" stroke-linecap="round" stroke-linejoin="round"/>
<path d="M65.3 52.2001C66.6255 52.2001 67.7 51.1704 67.7 49.9001C67.7 48.6298 66.6255 47.6001 65.3 47.6001C63.9745 47.6001 62.9 48.6298 62.9 49.9001C62.9 51.1704 63.9745 52.2001 65.3 52.2001Z" stroke="#719898" stroke-width="2" stroke-miterlimit="10" stroke-linecap="round" stroke-linejoin="round"/>
<path d="M95.3 51.4002H75.1C74.2 51.4002 73.5 50.7002 73.5 49.8002C73.5 48.9002 74.2 48.2002 75.1 48.2002H95.3C96.2 48.2002 96.9 48.9002 96.9 49.8002C96.9 50.7002 96.2 51.4002 95.3 51.4002ZM69 70.9002C69 73.6002 67.9 76.0002 66 77.7002C64.3 79.3002 62.1 80.2002 59.6 80.2002C57.1 80.2002 54.9 79.2002 53.2 77.7002C51.4 76.0002 50.2 73.6002 50.2 70.9002C50.2 65.7002 54.4 61.5002 59.6 61.5002C64.8 61.5002 69 65.7002 69 70.9002Z" stroke="#719898" stroke-width="2" stroke-miterlimit="10" stroke-linecap="round" stroke-linejoin="round"/>
<path d="M59.6 71.0998C61.2016 71.0998 62.5 69.8014 62.5 68.1998C62.5 66.5982 61.2016 65.2998 59.6 65.2998C57.9984 65.2998 56.7 66.5982 56.7 68.1998C56.7 69.8014 57.9984 71.0998 59.6 71.0998Z" stroke="#719898" stroke-width="2" stroke-miterlimit="10" stroke-linecap="round" stroke-linejoin="round"/>
<path d="M53.2 77.6998C54.2 75.0998 56.7 73.2998 59.6 73.2998C62.5 73.2998 65 75.0998 66 77.6998" stroke="#719898" stroke-width="2" stroke-miterlimit="10" stroke-linecap="round" stroke-linejoin="round"/>
<path d="M77.9 94.5H49.4" stroke="#719898" stroke-width="2" stroke-miterlimit="10" stroke-linecap="round" stroke-linejoin="round"/>
<path d="M76.3 86.3999H49.4" stroke="#719898" stroke-width="2" stroke-miterlimit="10" stroke-linecap="round" stroke-linejoin="round"/>
<path d="M77.4 78.2998H74.5" stroke="#719898" stroke-width="2" stroke-miterlimit="10" stroke-linecap="round" stroke-linejoin="round"/>
<path d="M91.8 70.2998H74.5" stroke="#719898" stroke-width="2" stroke-miterlimit="10" stroke-linecap="round" stroke-linejoin="round"/>
<path d="M74.6 62.2002H96.1" stroke="#719898" stroke-width="2" stroke-miterlimit="10" stroke-linecap="round" stroke-linejoin="round"/>
<path d="M104.7 80.2002C105.4 80.4002 106 81.0002 106 81.8002V83.6002C106 88.2002 105 92.8002 102.9 97.0002C100.7 101.3 97.7001 104.4 93.7001 105.9C93.3001 106 92.9 106 92.6 105.9C88.6 104.4 85.6001 101.3 83.4001 97.0002C81.3001 92.9002 80.3 88.3002 80.3 83.6002V81.8002C80.3 81.0002 80.8 80.4002 81.6 80.2002C86.2 79.2002 89.6 77.3002 92 74.6002C92.6 73.9002 93.8001 73.9002 94.4001 74.6002C96.7001 77.3002 100.1 79.2002 104.7 80.2002Z" stroke="#719898" stroke-width="2" stroke-miterlimit="10" stroke-linecap="round" stroke-linejoin="round"/>
<path d="M93.0999 102.4C90.3999 101.2 88.2 98.8998 86.4 95.3998C84.6 91.9998 83.7 87.8998 83.7 83.5998V83.1998C87.5 82.1998 90.7 80.5998 93.2 78.2998C95.7 80.5998 98.9 82.1998 102.7 83.1998V83.5998C102.7 87.8998 101.8 91.8998 100 95.3998C98 98.8998 95.7999 101.2 93.0999 102.4Z" stroke="#719898" stroke-width="2" stroke-miterlimit="10" stroke-linecap="round" stroke-linejoin="round"/>
<path d="M94.8 91.3001L95.3 93.4001C95.4 93.8001 95.1 94.2001 94.6 94.2001H91.6C91.2 94.2001 90.8 93.8001 90.9 93.4001L91.4 91.2001C91.4 91.0001 91.4 90.7001 91.2 90.6001C90.5 90.0001 90.1 89.1001 90.3 88.1001C90.5 86.9001 91.5 85.9001 92.7 85.8001C94.4 85.6001 95.9 86.9001 95.9 88.6001C95.9 89.4001 95.5 90.2001 95 90.7001C94.8 90.9001 94.7 91.1001 94.8 91.3001Z" stroke="#719898" stroke-width="2" stroke-miterlimit="10" stroke-linecap="round" stroke-linejoin="round"/>
</svg>
