<svg width="150" height="150" viewBox="0 0 150 150" fill="none" xmlns="http://www.w3.org/2000/svg">
<rect width="150" height="150" rx="75" fill="#EACFED"/>
<path d="M96.1566 73.2993C95.5504 73.2993 94.969 73.0585 94.5403 72.6298C94.1117 72.2012 93.8709 71.6198 93.8709 71.0136V64.5587C93.8709 55.4159 85.4229 48.1016 75.0366 48.1016C64.6503 48.1016 56.2023 55.5073 56.2023 64.5587V71.0136C56.2023 71.6198 55.9615 72.2012 55.5328 72.6298C55.1042 73.0585 54.5228 73.2993 53.9166 73.2993C53.3104 73.2993 52.729 73.0585 52.3003 72.6298C51.8717 72.2012 51.6309 71.6198 51.6309 71.0136V64.5587C51.6309 52.929 62.1451 43.457 75.0366 43.457C87.928 43.457 98.4423 52.929 98.4423 64.5587V71.0136C98.4447 71.3144 98.3873 71.6128 98.2733 71.8912C98.1593 72.1696 97.991 72.4225 97.7783 72.6353C97.5655 72.848 97.3126 73.0163 97.0342 73.1303C96.7557 73.2443 96.4574 73.3018 96.1566 73.2993V73.2993Z" fill="#A343AE"/>
<path d="M89.976 94.8035C89.3698 94.8035 88.7884 94.5627 88.3598 94.1341C87.9311 93.7054 87.6903 93.124 87.6903 92.5178V70.8127C87.7093 70.2192 87.9585 69.6565 88.3851 69.2435C88.8117 68.8305 89.3823 68.5998 89.976 68.6001C97.8572 68.6001 104.275 74.5064 104.275 81.7475C104.275 88.9887 97.8572 94.8035 89.976 94.8035ZM92.2618 73.3361V89.9944C94.2629 89.6631 96.0905 88.6571 97.441 87.1436C98.7915 85.6302 99.5836 83.7002 99.6858 81.6744C99.5877 79.6453 98.7974 77.7111 97.4466 76.1939C96.0957 74.6767 94.2659 73.6681 92.2618 73.3361ZM60.024 94.8035C52.1429 94.8035 45.7246 88.9155 45.7246 81.6744C45.7246 74.4332 52.1429 68.6001 60.024 68.6001C60.6302 68.6001 61.2116 68.8409 61.6403 69.2696C62.0689 69.6982 62.3098 70.2796 62.3098 70.8858V92.5178C62.3098 93.124 62.0689 93.7054 61.6403 94.1341C61.2116 94.5627 60.6302 94.8035 60.024 94.8035V94.8035ZM57.7383 73.3361C55.7342 73.6681 53.9044 74.6767 52.5535 76.1939C51.2027 77.7111 50.4124 79.6453 50.3143 81.6744C50.4165 83.7002 51.2086 85.6302 52.5591 87.1436C53.9095 88.6571 55.7372 89.6631 57.7383 89.9944V73.3361Z" fill="#A343AE"/>
<path d="M89.2262 102.245H81.656C81.0497 102.245 80.4684 102.005 80.0397 101.576C79.6111 101.147 79.3702 100.566 79.3702 99.9598C79.3702 99.3535 79.6111 98.7722 80.0397 98.3435C80.4684 97.9149 81.0497 97.674 81.656 97.674H89.2262C90.4096 97.674 91.5444 97.204 92.3811 96.3672C93.2179 95.5305 93.688 94.3956 93.688 93.2123V92.2066C93.688 91.6004 93.9288 91.019 94.3574 90.5904C94.7861 90.1617 95.3675 89.9209 95.9737 89.9209C96.5799 89.9209 97.1613 90.1617 97.5899 90.5904C98.0186 91.019 98.2594 91.6004 98.2594 92.2066V93.2123C98.2594 95.6081 97.3077 97.9057 95.6136 99.5997C93.9196 101.294 91.622 102.245 89.2262 102.245V102.245Z" fill="#A343AE"/>
<path d="M77.7428 106.543H73.2263C71.5677 106.543 69.977 105.884 68.8042 104.711C67.6314 103.539 66.9725 101.948 66.9725 100.289V100.033C66.9774 98.3779 67.6384 96.7919 68.8107 95.6231C69.9829 94.4542 71.5708 93.7978 73.2263 93.7979H77.7428C79.3966 93.7979 80.9826 94.4548 82.1519 95.6242C83.3213 96.7935 83.9782 98.3795 83.9782 100.033V100.289C83.9783 101.945 83.3219 103.533 82.1531 104.705C80.9842 105.877 79.3982 106.538 77.7428 106.543ZM73.2628 98.3693C72.8198 98.3693 72.3947 98.544 72.0797 98.8555C71.7647 99.1671 71.5854 99.5903 71.5805 100.033V100.289C71.5805 100.735 71.7578 101.163 72.0733 101.479C72.3888 101.794 72.8166 101.972 73.2628 101.972H77.7428C78.1858 101.967 78.609 101.787 78.9206 101.472C79.2321 101.157 79.4068 100.732 79.4068 100.289V100.033C79.4068 99.592 79.2315 99.1687 78.9194 98.8567C78.6074 98.5446 78.1841 98.3693 77.7428 98.3693H73.2628Z" fill="#A343AE"/>
</svg>
