<svg width="150" height="150" viewBox="0 0 150 150" fill="none" xmlns="http://www.w3.org/2000/svg">
<rect width="150" height="150" rx="75" fill="#F8E2E4"/>
<g clip-path="url(#clip0_4_2695)">
<path d="M101 48H49C47.4087 48 45.8826 48.6321 44.7574 49.7574C43.6321 50.8826 43 52.4087 43 54V96C43 97.5913 43.6321 99.1174 44.7574 100.243C45.8826 101.368 47.4087 102 49 102H101C102.591 102 104.117 101.368 105.243 100.243C106.368 99.1174 107 97.5913 107 96V54C107 52.4087 106.368 50.8826 105.243 49.7574C104.117 48.6321 102.591 48 101 48ZM97 54H101V58H97V54ZM91 54H95V58H91V54ZM85 54H89V58H85V54ZM103 96C103 96.5304 102.789 97.0391 102.414 97.4142C102.039 97.7893 101.53 98 101 98H49C48.4696 98 47.9609 97.7893 47.5858 97.4142C47.2107 97.0391 47 96.5304 47 96V64H103V96Z" fill="#BD7575"/>
<path d="M65.74 68.4702L54.54 79.6702C54.1827 80.0516 53.9889 80.5577 54 81.0802C53.9985 81.3434 54.049 81.6044 54.1485 81.848C54.248 82.0917 54.3947 82.3133 54.58 82.5002L65.78 93.6902L68.61 90.8702L58.82 81.0802L68.61 71.3002L65.74 68.4702ZM84.26 68.4702L81.43 71.3002L91.22 81.0802L81.43 90.8702L84.26 93.6902L95.46 82.5002C95.8198 82.1163 96.0138 81.6062 96 81.0802C96.0004 80.5521 95.7919 80.0452 95.42 79.6702L84.26 68.4702Z" fill="#BD7575"/>
<path d="M75.5374 68.607L70.5364 93.6118L74.4587 94.3963L79.4597 69.3915L75.5374 68.607Z" fill="#BD7575"/>
</g>
<defs>
<clipPath id="clip0_4_2695">
<rect width="64" height="64" fill="white" transform="translate(43 43)"/>
</clipPath>
</defs>
</svg>
